<svg width="55" height="40" viewBox="0 0 55 40" fill="none" xmlns="http://www.w3.org/2000/svg">
<path d="M28.6624 28.3895V15.9008L36.8215 12.0465C37.5844 11.6862 37.5727 10.5904 36.8027 10.2457L28.6624 6.60973V6.01154C28.6624 5.45313 28.2073 5 27.6465 5H27.3535C26.7927 5 26.3376 5.45313 26.3376 6.01154V31.3305C26.3376 32.0582 25.7455 32.6478 25.0147 32.6478C24.2839 32.6478 23.6918 32.0582 23.6918 31.3305V28.5314C18.6508 28.9588 15 30.2098 15 31.6877C15 33.5174 20.5964 35 27.5 35C34.4036 35 40 33.5166 40 31.6877C40 29.9618 35.0208 28.5447 28.6624 28.3895Z" fill="white"/>
</svg>
