<svg width="22" height="30" viewBox="0 0 22 30" fill="none" xmlns="http://www.w3.org/2000/svg">
<path d="M8.20959 15.2756L8.0873 15.1984H7.9427H7.94168H7.94066H7.93964H7.93862H7.9376H7.93658H7.93556H7.93455H7.93353H7.93252H7.93151H7.9305H7.92948H7.92847H7.92747H7.92646H7.92545H7.92444H7.92344H7.92243H7.92143H7.92043H7.91943H7.91843H7.91743H7.91643H7.91543H7.91443H7.91344H7.91244H7.91145H7.91046H7.90946H7.90847H7.90748H7.90649H7.90551H7.90452H7.90353H7.90255H7.90156H7.90058H7.89959H7.89861H7.89763H7.89665H7.89567H7.89469H7.89371H7.89274H7.89176H7.89079H7.88981H7.88884H7.88787H7.8869H7.88593H7.88496H7.88399H7.88302H7.88205H7.88109H7.88012H7.87916H7.87819H7.87723H7.87627H7.87531H7.87435H7.87339H7.87243H7.87147H7.87051H7.86956H7.8686H7.86765H7.8667H7.86574H7.86479H7.86384H7.86289H7.86194H7.86099H7.86004H7.8591H7.85815H7.85721H7.85626H7.85532H7.85438H7.85343H7.85249H7.85155H7.85061H7.84968H7.84874H7.8478H7.84686H7.84593H7.84499H7.84406H7.84313H7.84219H7.84126H7.84033H7.8394H7.83847H7.83754H7.83662H7.83569H7.83476H7.83384H7.83291H7.83199H7.83107H7.83014H7.82922H7.8283H7.82738H7.82646H7.82554H7.82463H7.82371H7.82279H7.82188H7.82096H7.82005H7.81914H7.81822H7.81731H7.8164H7.81549H7.81458H7.81367H7.81276H7.81186H7.81095H7.81004H7.80914H7.80823H7.80733H7.80643H7.80552H7.80462H7.80372H7.80282H7.80192H7.80102H7.80013H7.79923H7.79833H7.79744H7.79654H7.79565H7.79475H7.79386H7.79296H7.79207H7.79118H7.79029H7.7894H7.78851H7.78762H7.78674H7.78585H7.78496H7.78408H7.78319H7.78231H7.78142H7.78054H7.77966H7.77877H7.77789H7.77701H7.77613H7.77525H7.77437H7.7735H7.77262H7.77174H7.77087H7.76999H7.76912H7.76824H7.76737H7.76649H7.76562H7.76475H7.76388H7.76301H7.76214H7.76127H7.7604H7.75953H7.75867H7.7578H7.75693H7.75607H7.7552H7.75434H7.75347H7.75261H7.75175H7.75089H7.75002H7.74916H7.7483H7.74744H7.74658H7.74573H7.74487H7.74401H7.74315H7.7423H7.74144H7.74059H7.73973H7.73888H7.73802H7.73717H7.73632H7.73547H7.73462H7.73377H7.73291H7.73207H7.73122H7.73037H7.72952H7.72867H7.72783H7.72698H7.72613H7.72529H7.72444H7.7236H7.72276H7.72191H7.72107H7.72023H7.71939H7.71855H7.71771H7.71687H7.71603H7.71519H7.71435H7.71351H7.71267H7.71184H7.711H7.71016H7.70933H7.70849H7.70766H7.70683H7.70599H7.70516H7.70433H7.70349H7.70266H7.70183H7.701H7.70017H7.69934H7.69851H7.69768H7.69686H7.69603H7.6952H7.69437H7.69355H7.69272H7.6919H7.69107H7.69025H7.68942H7.6886H7.68778H7.68695H7.68613H7.68531H7.68449H7.68367H7.68285H7.68203H7.68121H7.68039H7.67957H7.67875H7.67793H7.67711H7.6763H7.67548H7.67466H7.67385H7.67303H7.67222H7.6714H7.67059H7.66978H7.66896H7.66815H7.66734H7.66652H7.66571H7.6649H7.66409H7.66328H7.66247H7.66166H7.66085H7.66004H7.65923H7.65842H7.65762H7.65681H7.656H7.65519H7.65439H7.65358H7.65278H7.65197H7.65117H7.65036H7.64956H7.64875H7.64795H7.64715H7.64634H7.64554H7.64474H7.64394H7.64314H7.64233H7.64153H7.64073H7.63993H7.63913H7.63833H7.63753H7.63673H7.63594H7.63514H7.63434H7.63354H7.63275H7.63195H7.63115H7.63036H7.62956H7.62876H7.62797H7.62717H7.62638H7.62558H7.62479H7.624H7.6232H7.62241H7.62162H7.62082H7.62003H7.61924H7.61845H7.61766H7.61686H7.61607H7.61528H7.61449H7.6137H7.61291H7.61212H7.61133H7.61054H7.60976H7.60897H7.60818H7.60739H7.6066H7.60581H7.60503H7.60424H7.60345H7.60267H7.60188H7.60109H7.60031H7.59952H7.59874H7.59795H7.59717H7.59638H7.5956H7.59481H7.59403H7.59325H7.59246H7.59168H7.5909H7.59011H7.58933H7.58855H7.58777H7.58698H7.5862H7.58542H7.58464H7.58386H7.58308H7.58229H7.58151H7.58073H7.57995H7.57917H7.57839H7.57761H7.57683H7.57605H7.57527H7.5745H7.57372H7.57294H7.57216H7.57138H7.5706H7.56982H7.56905H7.56827H7.56749H7.56671H7.56594H7.56516H7.56438H7.56361H7.56283H7.56205H7.56128H7.5605H7.55972H7.55895H7.55817H7.5574H7.55662H7.55584H7.55507H7.55429H7.55352H7.55274H7.55197H7.55119H7.55042H7.54964H7.54887H7.5481H7.54732H7.54655H7.54577H7.545H7.54423H7.54345H7.54268H7.54191H7.54113H7.54036H7.53959H7.53881H7.53804H7.53727H7.53649H7.53572H7.53495H7.53418H7.5334H7.53263H7.53186H7.53109H7.53031H7.52954H7.52877H7.528H7.52722H7.52645H7.52568H7.52491H7.52414H7.52337H7.52259H7.52182H7.52105H7.52028H7.51951H7.51874H7.51796H7.51719H7.51642H7.51565H7.51488H7.51411H7.51334H7.51256H7.51179H7.51102H7.51025H7.50948H7.50871H7.50794H7.50716H7.50639H7.50562H7.50485C6.95746 15.1984 6.41009 15.1986 5.86275 15.1987C4.22053 15.199 2.57857 15.1993 0.936971 15.1968H0.936865C0.712978 15.1965 0.597493 15.1302 0.551309 15.085C0.517012 15.0514 0.485815 14.9986 0.506469 14.886C0.513066 14.8509 0.542367 14.7821 0.615507 14.6738L0.615521 14.6738C2.0169 12.5973 3.41948 10.5208 4.82214 8.44427C6.55733 5.87543 8.29264 3.3064 10.026 0.736859C10.0943 0.635978 10.1572 0.584868 10.2156 0.555036C10.2755 0.524383 10.3624 0.500045 10.5014 0.5C14.0206 0.505933 17.5398 0.505085 21.0597 0.5C21.203 0.50003 21.2918 0.519558 21.3474 0.544208C21.3928 0.564335 21.4321 0.594163 21.4703 0.660106L21.4703 0.660139C21.5019 0.714691 21.5026 0.746486 21.498 0.776695C21.4912 0.821315 21.4655 0.892786 21.3939 1.00285C19.6892 3.60849 17.9878 6.21539 16.2865 8.82219C16.0136 9.24021 15.7408 9.65822 15.468 10.0762L15.467 10.0777C15.4178 10.1536 15.3688 10.2306 15.3095 10.3234C15.2771 10.3743 15.2416 10.4299 15.2014 10.4928L14.7091 11.2623H15.6225H15.6235H15.6245H15.6254H15.6264H15.6274H15.6283H15.6293H15.6302H15.6312H15.6321H15.6331H15.634H15.635H15.6359H15.6369H15.6378H15.6388H15.6397H15.6407H15.6416H15.6426H15.6435H15.6444H15.6454H15.6463H15.6473H15.6482H15.6491H15.6501H15.651H15.6519H15.6529H15.6538H15.6547H15.6556H15.6566H15.6575H15.6584H15.6593H15.6603H15.6612H15.6621H15.663H15.6639H15.6648H15.6658H15.6667H15.6676H15.6685H15.6694H15.6703H15.6712H15.6721H15.673H15.6739H15.6748H15.6757H15.6766H15.6775H15.6784H15.6793H15.6802H15.6811H15.682H15.6829H15.6838H15.6847H15.6856H15.6865H15.6874H15.6883H15.6892H15.6901H15.6909H15.6918H15.6927H15.6936H15.6945H15.6954H15.6962H15.6971H15.698H15.6989H15.6997H15.7006H15.7015H15.7024H15.7032H15.7041H15.705H15.7058H15.7067H15.7076H15.7085H15.7093H15.7102H15.711H15.7119H15.7128H15.7136H15.7145H15.7153H15.7162H15.7171H15.7179H15.7188H15.7196H15.7205H15.7213H15.7222H15.723H15.7239H15.7247H15.7256H15.7264H15.7273H15.7281H15.729H15.7298H15.7306H15.7315H15.7323H15.7332H15.734H15.7348H15.7357H15.7365H15.7374H15.7382H15.739H15.7399H15.7407H15.7415H15.7423H15.7432H15.744H15.7448H15.7457H15.7465H15.7473H15.7481H15.749H15.7498H15.7506H15.7514H15.7522H15.7531H15.7539H15.7547H15.7555H15.7563H15.7571H15.758H15.7588H15.7596H15.7604H15.7612H15.762H15.7628H15.7636H15.7644H15.7653H15.7661H15.7669H15.7677H15.7685H15.7693H15.7701H15.7709H15.7717H15.7725H15.7733H15.7741H15.7749H15.7757H15.7765H15.7773H15.7781H15.7789H15.7796H15.7804H15.7812H15.782H15.7828H15.7836H15.7844H15.7852H15.786H15.7867H15.7875H15.7883H15.7891H15.7899H15.7907H15.7915H15.7922H15.793H15.7938H15.7946H15.7954H15.7961H15.7969H15.7977H15.7985H15.7992H15.8H15.8008H15.8016H15.8023H15.8031H15.8039H15.8046H15.8054H15.8062H15.8069H15.8077H15.8085H15.8092H15.81H15.8108H15.8115H15.8123H15.8131H15.8138H15.8146H15.8154H15.8161H15.8169H15.8176H15.8184H15.8191H15.8199H15.8207H15.8214H15.8222H15.8229H15.8237H15.8244H15.8252H15.8259H15.8267H15.8274H15.8282H15.8289H15.8297H15.8304H15.8312H15.8319H15.8327H15.8334H15.8342H15.8349H15.8357H15.8364H15.8371H15.8379H15.8386H15.8394H15.8401H15.8409H15.8416H15.8423H15.8431H15.8438H15.8446H15.8453H15.846H15.8468H15.8475H15.8482H15.849H15.8497H15.8504H15.8512H15.8519H15.8526H15.8534H15.8541H15.8548H15.8555H15.8563H15.857H15.8577H15.8585H15.8592H15.8599H15.8606H15.8614H15.8621H15.8628H15.8635H15.8643H15.865H15.8657H15.8664H15.8672H15.8679H15.8686H15.8693H15.87H15.8708H15.8715H15.8722H15.8729H15.8736H15.8743H15.8751H15.8758H15.8765H15.8772H15.8779H15.8786H15.8793H15.8801H15.8808H15.8815H15.8822H15.8829H15.8836H15.8843H15.885H15.8857H15.8865H15.8872H15.8879H15.8886H15.8893H15.89H15.8907H15.8914H15.8921H15.8928H15.8935H15.8942H15.8949H15.8956H15.8963H15.897H15.8978H15.8985H15.8992H15.8999H15.9006H15.9013H15.902H15.9027H15.9034H15.9041H15.9048H15.9055H15.9062H15.9069H15.9076H15.9083H15.9089H15.9096H15.9103H15.911H15.9117H15.9124H15.9131H15.9138H15.9145H15.9152H15.9159H15.9166H15.9173H15.918H15.9187H15.9194H15.9201H15.9208H15.9214H15.9221H15.9228H15.9235H15.9242H15.9249H15.9256H15.9263H15.927H15.9276H15.9283H15.929H15.9297H15.9304H15.9311H15.9318H15.9325H15.9331H15.9338H15.9345H15.9352H15.9359H15.9366H15.9373H15.9379H15.9386H15.9393H15.94H15.9407H15.9414H15.942H15.9427H15.9434H15.9441H15.9448H15.9455H15.9461H15.9468H15.9475H15.9482H15.9489H15.9496H15.9502H15.9509H15.9516H15.9523H15.953H15.9536H15.9543H15.955H15.9557H15.9563H15.957H15.9577H15.9584H15.9591H15.9597H15.9604H15.9611H15.9618H15.9624H15.9631H15.9638H15.9645H15.9652H15.9658H15.9665H15.9672H15.9679H15.9685H15.9692H15.9699H15.9706H15.9712H15.9719H15.9726H15.9733H15.9739H15.9746H15.9753H15.976H15.9766H15.9773H15.978H15.9787H15.9793H15.98H15.9807H15.9814H15.982H15.9827H15.9834H15.984H15.9847H15.9854H15.9861H15.9867H15.9874H15.9881H15.9888H15.9894H15.9901H15.9908H15.9914H15.9921H15.9928H15.9935H15.9941H15.9948H15.9955H15.9962H15.9968H15.9975H15.9982H15.9988H15.9995H16.0002H16.0009H16.0015H16.0022H16.0029H16.0035H16.0042H16.0049H16.0056H16.0062H16.0069H16.0076H16.0082H16.0089H16.0096H16.0103H16.0109H16.0116H16.0123H16.0129H16.0136H16.0143H16.015H16.0156C16.4622 11.2623 16.9089 11.2624 17.3557 11.2626C18.473 11.2629 19.5907 11.2632 20.7077 11.2614C20.84 11.2614 20.9289 11.2767 20.9901 11.2997C21.0427 11.3196 21.0834 11.348 21.1216 11.4005C21.185 11.4881 21.1895 11.5853 21.1085 11.6895C21.0749 11.7324 21.0337 11.7713 20.9583 11.8426C20.9501 11.8504 20.9415 11.8585 20.9324 11.8671L20.9321 11.8674C19.7069 13.0286 18.4816 14.1899 17.2563 15.3513C12.365 19.9872 7.47332 24.6235 2.58282 29.2608C2.35748 29.4741 2.27049 29.5088 2.1654 29.4984C2.01858 29.4835 1.95603 29.4188 1.92989 29.3682C1.9017 29.3137 1.87963 29.203 1.95938 29.0399L1.95941 29.0398C2.44446 28.0469 2.93322 27.0557 3.42242 26.0636C3.63265 25.6372 3.84295 25.2107 4.05308 24.7839L4.05313 24.7838C5.4446 21.9554 6.83607 19.1263 8.22665 16.2979L8.22726 16.2967C8.26738 16.2145 8.30767 16.1212 8.34692 16.0303C8.36567 15.9868 8.38419 15.944 8.40234 15.9031L8.57782 15.5081L8.21227 15.2773L8.20959 15.2756Z" fill="white" stroke="white"/>
</svg>
