<svg width="43" height="30" viewBox="0 0 43 30" fill="none" xmlns="http://www.w3.org/2000/svg">
<path d="M21.5922 18.1764C23.318 18.1764 24.7171 16.7774 24.7171 15.0515C24.7171 13.3257 23.318 11.9266 21.5922 11.9266C19.8663 11.9266 18.4673 13.3257 18.4673 15.0515C18.4673 16.7774 19.8663 18.1764 21.5922 18.1764Z" fill="white"/>
<path d="M11.6145 15.3766C11.5822 10.1497 15.6685 6.14147 15.7268 6.08418C16.0383 5.78523 16.0487 5.2915 15.7497 4.98005C15.4508 4.6686 14.9571 4.65818 14.6456 4.95609C14.4571 5.13733 10.0229 9.45489 10.052 15.3713C10.0697 18.9546 11.7228 22.3149 14.9643 25.3606C15.1154 25.5022 15.307 25.572 15.4987 25.572C15.707 25.572 15.9143 25.4897 16.0685 25.3252C16.3643 25.0106 16.3487 24.5169 16.0341 24.221C13.1217 21.4847 11.6343 18.5087 11.6155 15.3755L11.6145 15.3766Z" fill="white"/>
<path d="M2.50123 14.438C2.78768 6.78934 8.52289 1.40932 8.58018 1.35619C8.89684 1.06454 8.91767 0.569762 8.62602 0.253107C8.33332 -0.0645905 7.83959 -0.0854231 7.52189 0.207275C7.26669 0.441642 1.26065 6.05707 0.94087 14.362C0.735669 19.6972 2.93559 24.8741 7.48022 29.75C7.63438 29.9146 7.84271 29.9989 8.05208 29.9989C8.2427 29.9989 8.43436 29.9291 8.58435 29.7896C8.89996 29.4958 8.91767 29.0011 8.62289 28.6854C4.37721 24.1294 2.3179 19.3358 2.50123 14.438Z" fill="white"/>
<path d="M28.6024 4.95719C28.2909 4.65928 27.7972 4.6697 27.4993 4.9801C27.2003 5.29051 27.2107 5.78528 27.5211 6.08423C27.5628 6.12381 31.6668 10.1383 31.6345 15.3766C31.6148 18.5098 30.1283 21.4858 27.216 24.2221C26.9014 24.518 26.8858 25.0117 27.1816 25.3263C27.3357 25.4898 27.543 25.5731 27.7513 25.5731C27.943 25.5731 28.1357 25.5033 28.2857 25.3617C31.5273 22.317 33.1793 18.9557 33.198 15.3724C33.2272 9.45703 28.793 5.13843 28.6044 4.95719H28.6024Z" fill="white"/>
<path d="M42.3082 14.362C41.9884 6.05709 35.9824 0.441662 35.7261 0.206254C35.4084 -0.0854024 34.9157 -0.0656114 34.623 0.252086C34.3314 0.568741 34.3512 1.06352 34.6678 1.35621C34.7262 1.40934 40.4603 6.7904 40.7468 14.4391C40.9301 19.3368 38.8708 24.1304 34.6251 28.6865C34.3314 29.0021 34.348 29.4969 34.6637 29.7906C34.8147 29.9312 35.0053 30 35.1959 30C35.4053 30 35.6136 29.9167 35.7678 29.751C40.3124 24.8752 42.5123 19.6972 42.3071 14.363L42.3082 14.362Z" fill="white"/>
</svg>
