<?xml version="1.0" encoding="UTF-8"?>
<svg id="Layer_1" xmlns="http://www.w3.org/2000/svg" version="1.1" viewBox="0 0 717.59 540">
  <!-- Generator: Adobe Illustrator 29.5.1, SVG Export Plug-In . SVG Version: 2.1.0 Build 141)  -->
  <defs>
    <style>
      .st0 {
        fill: none;
      }

      .st1 {
        fill: #bf0d3e;
      }

      .st2 {
        fill: #fff;
      }
    </style>
  </defs>
  <g>
    <polygon class="st0" points="274.27 453.88 269.76 473.4 249.72 473.4 206.84 473.4 200.87 498.3 211.02 514.81 420.09 514.81 430 473.4 414.65 473.4 382.94 473.4 390.12 442.51 396.65 414.43 283.36 414.43 274.27 453.88"/>
    <polygon class="st2" points="356.55 97.09 363.66 66.24 332.01 66.24 295.09 66.24 298.94 49.11 321.9 25.19 487.14 25.19 459.5 144.09 485.35 144.09 518.85 0 311.17 0 275.91 36.73 263.61 91.43 332.01 91.43 319.86 144.09 345.71 144.09 356.55 97.09"/>
    <polygon class="st2" points="396.65 414.43 390.12 442.51 382.94 473.4 414.65 473.4 430 473.4 420.09 514.81 211.02 514.81 200.87 498.3 206.84 473.4 249.72 473.4 269.76 473.4 274.27 453.88 283.36 414.43 257.52 414.43 249.72 448.22 186.97 448.22 173.95 502.59 196.94 540 439.95 540 461.93 448.22 414.65 448.22 422.51 414.43 396.65 414.43"/>
    <g>
      <path class="st2" d="M99.9,162.61l9.5,12.43-11.14,49.73-15.37,12.43,9.3,12.43-11.84,52.94-15.37,12.43H0l35.33-152.41h64.57v.02ZM64.29,249.85h-23.46l-9.48,40.31h23.06l3.68-3.01,8.35-34.49-2.15-2.81h0ZM69.54,225.18l3.48-3.01,7.95-32.29-2.13-3.01h-23.46l-8.9,38.3h23.06Z"/>
      <path class="st2" d="M155.61,282.13h-31.28l-14.42,32.89h-26.47l71.43-152.41h24.87l.77,152.41h-25.67l.79-32.89h-.02ZM156.45,257.47l1.26-51.34-22.52,51.34h21.26Z"/>
      <path class="st2" d="M263.56,206.53l3.87-16.04-2.33-3.01h-19.45l-3.68,3.01-7.7,31.69,2.33,3.01h35.7l9.5,12.43-14.54,64.98-15.37,12.43h-51.74l-9.5-12.43,7.08-31.48h25.47l-4.09,16.24,2.33,3.01h19.45l3.68-3.01,8.55-34.49-2.33-3.01h-35.5l-9.7-12.43,14.1-62.37,15.37-12.43h51.74l9.5,12.43-7.08,31.48h-25.67,0Z"/>
      <path class="st2" d="M280.36,315.02l35.33-152.41h73l-5.65,24.67h-47.53l-8.86,37.9h35.3l-5.65,24.67h-35.3l-9.5,40.51h47.53l-5.65,24.67h-73.02Z"/>
      <path class="st2" d="M468.1,162.61l9.5,12.43-11.14,49.73-15.37,12.43,9.3,12.43-11.84,52.94-15.37,12.43h-64.98l35.33-152.41h64.57v.02ZM432.49,249.85h-23.46l-9.48,40.31h23.06l3.68-3.01,8.35-34.49-2.15-2.81h0ZM437.74,225.18l3.48-3.01,7.95-32.29-2.13-3.01h-23.46l-8.9,38.3h23.06,0Z"/>
      <path class="st2" d="M523.81,282.13h-31.28l-14.42,32.89h-26.47l71.43-152.41h24.87l.77,152.41h-25.67l.79-32.89h-.02ZM524.65,257.47l1.26-51.34-22.52,51.34h21.26Z"/>
      <path class="st2" d="M630.11,315.02h-69.99l35.33-152.41h25.67l-29.67,127.75h44.32l-5.65,24.67h-.01Z"/>
      <path class="st2" d="M711.93,315.02h-69.99l35.33-152.41h25.67l-29.67,127.75h44.32l-5.65,24.67h-.01Z"/>
    </g>
    <polygon class="st1" points="118.73 405.96 574.77 405.96 574.77 329.27 137.97 329.27 118.73 405.96"/>
    <g>
      <g>
        <circle class="st2" cx="577.25" cy="367.61" r="35.77" transform="translate(85.54 843.61) rotate(-76.56)"/>
        <path class="st1" d="M577.26,405.96c-21.14,0-38.34-17.2-38.34-38.35s17.2-38.34,38.34-38.34,38.35,17.2,38.35,38.34-17.2,38.35-38.35,38.35ZM577.26,334.41c-18.31,0-33.2,14.9-33.2,33.2s14.89,33.2,33.2,33.2,33.2-14.9,33.2-33.2-14.9-33.2-33.2-33.2Z"/>
      </g>
      <g>
        <g>
          <path class="st1" d="M577.26,357.91c-10.77,0-21.02-4.66-28.11-12.79l-.89-1.01.89-1.01c7.1-8.13,17.34-12.79,28.11-12.79s21.02,4.66,28.11,12.79l.89,1.01-.89,1.01c-7.1,8.13-17.34,12.79-28.11,12.79ZM552.39,344.1c6.46,6.83,15.45,10.72,24.87,10.72s18.41-3.89,24.87-10.72c-6.46-6.83-15.45-10.72-24.87-10.72s-18.41,3.89-24.87,10.72Z"/>
          <path class="st1" d="M577.26,404.93c-10.77,0-21.02-4.66-28.11-12.79l-.89-1.01.89-1.01c7.1-8.13,17.34-12.79,28.11-12.79s21.02,4.66,28.11,12.79l.89,1.01-.89,1.01c-7.1,8.13-17.34,12.79-28.11,12.79ZM552.39,391.12c6.46,6.83,15.45,10.72,24.87,10.72s18.41-3.89,24.87-10.72c-6.46-6.83-15.45-10.72-24.87-10.72s-18.41,3.89-24.87,10.72Z"/>
        </g>
        <path class="st1" d="M551.2,353.55c-.61,0-1.19-.37-1.43-.97-.31-.79.07-1.69.86-2l4.6-1.83.51-4.31c.1-.85.86-1.45,1.71-1.35.85.1,1.45.87,1.35,1.71l-.72,6.14-6.32,2.51c-.19.07-.38.11-.57.11h.01Z"/>
        <path class="st1" d="M561.85,359.48c-.52,0-1.04-.27-1.32-.75-.44-.73-.2-1.68.53-2.12l4.4-2.63-.4-5.15c-.07-.85.57-1.59,1.42-1.66.85-.06,1.59.57,1.66,1.42l.54,7.05-6.04,3.61c-.25.15-.52.22-.79.22h0Z"/>
        <path class="st1" d="M576.11,362.92c-.29,0-.58-.08-.84-.25-.71-.46-.92-1.42-.45-2.13l2.8-4.3-2.61-4.45c-.43-.73-.18-1.68.55-2.11s1.68-.19,2.11.55l3.58,6.1-3.84,5.89c-.3.45-.79.7-1.29.7h0Z"/>
        <path class="st1" d="M589.13,360.73c-.14,0-.28-.02-.42-.06-.82-.23-1.3-1.08-1.07-1.9l1.38-4.94-3.83-3.47c-.63-.57-.68-1.55-.11-2.18s1.55-.68,2.18-.11l5.24,4.75-1.9,6.78c-.19.68-.81,1.13-1.48,1.13h.01Z"/>
        <path class="st1" d="M599.89,355.4h-.14c-.85-.07-1.48-.82-1.4-1.67l.45-5.11-4.4-2.7c-.73-.45-.95-1.4-.51-2.12.45-.73,1.39-.95,2.12-.51l6.03,3.7-.61,7.01c-.07.8-.74,1.41-1.53,1.41h0Z"/>
        <path class="st1" d="M557.27,392.22c-.77,0-1.44-.58-1.53-1.36l-.51-4.31-4.6-1.83c-.79-.31-1.18-1.21-.86-2,.31-.79,1.21-1.18,2-.86l6.32,2.51.72,6.14c.1.85-.51,1.61-1.35,1.71-.06,0-.12.01-.18.01h-.01Z"/>
        <path class="st1" d="M566.6,388.11h-.12c-.85-.07-1.49-.81-1.42-1.66l.4-5.15-4.4-2.63c-.73-.44-.97-1.38-.53-2.12.44-.73,1.39-.97,2.12-.53l6.04,3.61-.54,7.05c-.06.81-.74,1.42-1.54,1.42h-.01Z"/>
        <path class="st1" d="M576.33,385.81c-.27,0-.53-.07-.78-.21-.73-.43-.98-1.38-.55-2.11l2.61-4.45-2.8-4.3c-.47-.71-.26-1.67.45-2.13.71-.47,1.67-.26,2.13.45l3.84,5.89-3.58,6.1c-.29.49-.8.76-1.33.76h.01Z"/>
        <path class="st1" d="M586.23,387.59c-.42,0-.84-.17-1.14-.51-.57-.63-.52-1.61.11-2.18l3.83-3.47-1.38-4.94c-.23-.82.25-1.67,1.07-1.9.82-.23,1.67.25,1.9,1.07l1.9,6.78-5.24,4.75c-.3.27-.67.4-1.03.4h-.02Z"/>
        <path class="st1" d="M595.21,392.22c-.52,0-1.03-.26-1.32-.74-.45-.73-.22-1.68.51-2.12l4.4-2.7-.45-5.11c-.07-.85.55-1.6,1.4-1.67.85-.08,1.6.55,1.67,1.4l.61,7.01-6.03,3.7c-.25.15-.53.23-.81.23h.02Z"/>
      </g>
    </g>
    <g>
      <path class="st2" d="M219.78,339.41h7.23l6.44,37.02c.56,3.26.87,6.28.87,9.85h.16c.4-4.69.95-9.3,1.83-14.46l5.72-32.41h6.04l-9.93,56.41h-6.83l-6.51-38.14c-.72-3.97-.95-6.28-1.03-9.61h-.24c-.24,3.81-.4,6.91-1.11,10.88l-6.51,36.86h-6.04l9.93-56.41h-.02Z"/>
      <path class="st2" d="M271.26,344.97l-3.34,18.99h14.14l-1.03,5.56h-14.14l-3.65,20.74h16.05l-.95,5.56h-22.4l9.93-56.41h21.85l-.95,5.56h-15.51Z"/>
      <path class="st2" d="M326.64,345.21h-11.12l-8.9,50.61h-6.28l8.9-50.61h-11.2l1.03-5.8h28.6l-1.03,5.8h0Z"/>
      <path class="st2" d="M339.67,339.41h6.2l-2.86,40.92c-.24,3.34-.48,6.12-1.03,9.93h.32c.87-3.02,1.75-6.59,2.78-9.93l12.31-40.92h8.1l-2.14,40.92c-.16,3.34-.56,6.91-.8,9.93h.32c.87-3.81,1.59-6.59,2.54-9.93l11.52-40.92h6.36l-16.68,56.41h-9.06l2.22-39.96c.16-3.34.64-8.1.95-10.96h-.4c-.63,2.86-1.91,7.63-2.94,10.96l-11.84,39.96h-9.14l3.26-56.41h0Z"/>
      <path class="st2" d="M388.38,380.09l4.53-25.9c1.75-9.77,6.04-16.13,16.37-16.13,8.66,0,14.7,4.53,12.47,17.08l-4.53,25.9c-1.75,9.77-6.04,16.13-16.37,16.13-8.66,0-14.7-4.53-12.47-17.08ZM410.54,381.28l4.85-27.33c1.35-7.63-2.14-10.41-6.75-10.41-6.12,0-8.1,4.93-9.06,10.41l-4.85,27.33c-1.35,7.63,2.15,10.41,6.75,10.41,6.12,0,8.1-4.93,9.06-10.41Z"/>
      <path class="st2" d="M463.22,353.39l-.71,4.45c-.95,6.12-3.81,10.8-9.45,12.71l4.29,25.26h-6.83l-3.89-24.15h-5.4l-4.29,24.15h-6.36l9.93-56.41h10.01c8.02,0,14.3,3.97,12.71,13.98h-.01ZM450.27,344.49h-4.29l-3.89,22.25h5.24c5.88,0,8.02-4.53,8.66-8.74l.63-4.13c1.19-7.87-2.78-9.37-6.36-9.37h.01Z"/>
      <path class="st2" d="M494.28,361.18l5.56,34.64h-6.59l-4.13-29.16-7.79,10.96-3.18,18.19h-6.36l9.93-56.41h6.36l-5.16,29.24,19.54-29.24h6.91l-15.1,21.77h.01Z"/>
    </g>
  </g>
  <path class="st2" d="M1789.29,1457.98c1.93,0,1.93-3,0-3s-1.93,3,0,3h0Z"/>
</svg>