<svg width="28" height="30" viewBox="0 0 28 30" fill="none" xmlns="http://www.w3.org/2000/svg">
<path d="M1.9567 0.5H25.7753C26.5785 0.5 27.232 1.15346 27.232 1.9567V28.0433C27.232 28.8465 26.5785 29.5 25.7753 29.5H1.9567C1.15346 29.5 0.5 28.8465 0.5 28.0433V1.9567C0.5 1.15432 1.15363 0.5 1.9567 0.5ZM25.7753 28.8505C26.2205 28.8505 26.5825 28.4885 26.5825 28.0433V1.9567C26.5825 1.51149 26.2205 1.14948 25.7753 1.14948H1.9567C1.51149 1.14948 1.14948 1.51149 1.14948 1.9567V28.0433C1.14948 28.4885 1.51148 28.8505 1.9567 28.8505H25.7753Z" fill="white" stroke="white"/>
<path d="M12.2678 6.71491H4.2266C4.04707 6.71491 3.90186 6.5697 3.90186 6.39017C3.90186 6.21064 4.04707 6.06543 4.2266 6.06543H12.2678C12.4474 6.06543 12.5926 6.21064 12.5926 6.39017C12.5926 6.5697 12.4474 6.71491 12.2678 6.71491Z" fill="white" stroke="white"/>
<path d="M12.2678 10.9942H4.2266C4.04707 10.9942 3.90186 10.849 3.90186 10.6695C3.90186 10.4899 4.04707 10.3447 4.2266 10.3447H12.2678C12.4474 10.3447 12.5926 10.4899 12.5926 10.6695C12.5926 10.849 12.4474 10.9942 12.2678 10.9942Z" fill="white" stroke="white"/>
<path d="M12.2678 15.2725H4.2266C4.04707 15.2725 3.90186 15.1273 3.90186 14.9478C3.90186 14.7683 4.04707 14.623 4.2266 14.623H12.2678C12.4474 14.623 12.5926 14.7683 12.5926 14.9478C12.5926 15.1273 12.4474 15.2725 12.2678 15.2725Z" fill="white" stroke="white"/>
<path d="M4.2266 18.9023H22.9895C23.169 18.9023 23.3142 19.0476 23.3142 19.2271C23.3142 19.4066 23.169 19.5518 22.9895 19.5518H4.2266C4.04707 19.5518 3.90186 19.4066 3.90186 19.2271C3.90186 19.0476 4.04707 18.9023 4.2266 18.9023Z" fill="white" stroke="white"/>
<path d="M4.2266 23.1807H22.9895C23.169 23.1807 23.3142 23.3259 23.3142 23.5054C23.3142 23.6849 23.169 23.8301 22.9895 23.8301H4.2266C4.04707 23.8301 3.90186 23.6849 3.90186 23.5054C3.90186 23.3259 4.04707 23.1807 4.2266 23.1807Z" fill="white" stroke="white"/>
<path d="M15.4482 15.4795V5.75781H23.3142V15.4795H15.4482Z" fill="white" stroke="white"/>
</svg>
