<svg width="25" height="36" viewBox="0 0 25 36" fill="none" xmlns="http://www.w3.org/2000/svg">
<g clip-path="url(#clip0_329_824)">
<path d="M3.01387 19.1944C0.508325 18.0712 -0.614852 13.4057 0.335528 9.60417C1.6315 4.16108 6.297 0.273168 11.9129 0.0139732C17.4424 -0.245221 22.3671 3.12431 24.3542 8.2218C25.7366 11.8505 24.8726 18.3304 22.0215 19.7127C22.3671 18.676 22.5399 18.0712 22.7991 17.4664C25.4774 11.5913 22.9719 4.76587 17.0968 2.17393C11.2217 -0.418017 4.39624 2.26032 1.97709 8.2218C0.681121 11.3321 0.853917 14.4425 2.23629 17.4664C2.49548 17.9848 2.75468 18.5896 2.92747 19.108L3.01387 19.1944Z" fill="white"/>
<path d="M21.1573 21.4407C16.751 26.279 8.11114 26.1926 3.96403 21.4407C7.24716 16.084 17.183 15.9976 21.1573 21.4407ZM19.3429 21.4407C16.0598 17.7256 8.88873 17.7256 5.692 21.4407C9.49352 24.7238 15.7142 24.7238 19.3429 21.4407Z" fill="white"/>
<path d="M12.604 5.97543C15.196 5.97543 17.0967 7.96259 17.0967 10.5545C17.0967 13.1465 15.1096 15.0472 12.5176 15.0472C9.92566 15.0472 8.0249 13.0601 8.0249 10.4681C8.0249 7.87619 10.0121 5.97543 12.604 5.97543ZM12.5176 7.18501C10.7032 7.18501 9.23448 8.65378 9.23448 10.4681C9.23448 12.3689 10.7032 13.8377 12.604 13.8377C14.5048 13.8377 15.9735 12.2825 15.8871 10.3817C15.8871 8.56738 14.332 7.18501 12.5176 7.18501Z" fill="white"/>
</g>
<defs>
<clipPath id="clip0_329_824">
<rect width="25" height="35.0371" fill="white"/>
</clipPath>
</defs>
</svg>
