<svg width="35" height="30" viewBox="0 0 35 30" fill="none" xmlns="http://www.w3.org/2000/svg">
<path d="M29.8962 6.19021L30.144 5.77974L29.7443 5.51499C29.0028 5.02389 28.5151 4.18461 28.5151 3.23442C28.5151 1.72709 29.7422 0.5 31.2496 0.5C32.7563 0.5 33.9809 1.72647 33.9809 3.23442C33.9809 4.74176 32.7538 5.96885 31.2465 5.96885C31.1585 5.96885 31.071 5.96449 30.9859 5.95589L30.6711 5.92409L30.5076 6.19498L23.8828 17.1705L23.7038 17.4671L23.9186 17.7389C24.2877 18.206 24.5079 18.7928 24.5079 19.4313C24.5079 20.9387 23.2808 22.1657 21.7735 22.1657C20.2662 22.1657 19.0391 20.9387 19.0391 19.4313C19.0391 18.7058 19.3237 18.0456 19.7893 17.5537L20.1135 17.2112L19.7904 16.8675L14.6476 11.3973L14.3591 11.0904L14.0077 11.3226C13.5752 11.6083 13.0591 11.7747 12.504 11.7747C12.3224 11.7747 12.1454 11.7572 11.9757 11.7234L11.6137 11.6514L11.4382 11.9761L4.90021 24.0763L4.70872 24.4306L5.01424 24.6932C5.59886 25.1955 5.96885 25.9382 5.96885 26.7656C5.96885 28.2729 4.74176 29.5 3.23442 29.5C1.72709 29.5 0.5 28.2729 0.5 26.7656C0.5 25.2582 1.72709 24.0312 3.23442 24.0312C3.44997 24.0312 3.66016 24.0572 3.86366 24.1054L4.23667 24.1939L4.4189 23.8566L10.9301 11.806L11.1288 11.4383L10.8021 11.1776C10.1727 10.6751 9.77057 9.90443 9.77057 9.04131C9.77057 7.53397 10.9977 6.30688 12.505 6.30688C14.0123 6.30688 15.2394 7.53397 15.2394 9.04131C15.2394 9.52513 15.113 9.97911 14.8915 10.3733L14.7116 10.6933L14.9631 10.9608L20.3714 16.7119L20.5923 16.9468L20.8973 16.8425C21.1727 16.7484 21.4682 16.6969 21.7756 16.6969C22.1745 16.6969 22.5527 16.7832 22.8948 16.9376L23.2992 17.1203L23.5286 16.7403L29.8962 6.19021ZM1.03046 26.7656C1.03046 27.9825 2.01955 28.9716 3.23649 28.9716C4.45342 28.9716 5.44251 27.9825 5.44251 26.7656C5.44251 25.5486 4.45342 24.5596 3.23649 24.5596C2.01956 24.5596 1.03046 25.5486 1.03046 26.7656ZM12.506 6.83425C11.2891 6.83425 10.3 7.82334 10.3 9.04028C10.3 10.2572 11.2891 11.2463 12.506 11.2463C13.723 11.2463 14.712 10.2572 14.712 9.04028C14.712 7.82334 13.723 6.83425 12.506 6.83425ZM19.5706 19.4313C19.5706 20.6483 20.5597 21.6373 21.7766 21.6373C22.9935 21.6373 23.9826 20.6483 23.9826 19.4313C23.9826 18.2144 22.9935 17.2253 21.7766 17.2253C20.5597 17.2253 19.5706 18.2144 19.5706 19.4313ZM29.0446 3.23442C29.0446 4.45136 30.0337 5.44045 31.2506 5.44045C32.4675 5.44045 33.4566 4.45136 33.4566 3.23442C33.4566 2.01749 32.4675 1.0284 31.2506 1.0284C30.0337 1.0284 29.0446 2.01749 29.0446 3.23442Z" fill="white" stroke="white"/>
</svg>
