<svg width="40" height="30" viewBox="0 0 40 30" fill="none" xmlns="http://www.w3.org/2000/svg">
<path d="M38.859 25.3097V25.1026L38.8579 25.1016V2.38256C38.8579 1.64078 38.2556 1.03846 37.5138 1.03846H2.38256C1.64078 1.03846 1.03846 1.64078 1.03846 2.38256V25.3097C1.03846 26.0515 1.64078 26.6538 2.38256 26.6538H37.5149C38.2566 26.6538 38.859 26.0515 38.859 25.3097ZM2.38256 0.5H37.5138C38.5515 0.5 39.3964 1.34486 39.3964 2.38256V25.3087C39.3964 26.3464 38.5515 27.1913 37.5138 27.1913H2.38256C1.34486 27.1913 0.5 26.3464 0.5 25.3087V2.38256C0.5 1.34486 1.34486 0.5 2.38256 0.5Z" fill="white" stroke="white"/>
<path d="M7.35907 28.9619H32.5898C32.7383 28.9619 32.8591 29.0827 32.8591 29.2311C32.8591 29.3796 32.7383 29.5004 32.5898 29.5004H7.35907C7.2106 29.5004 7.08984 29.3796 7.08984 29.2311C7.08984 29.0827 7.2106 28.9619 7.35907 28.9619Z" fill="white" stroke="white"/>
<path d="M17.8049 10.182L17.8052 10.1822L23.8824 13.6912V13.6926L24.1329 13.8369C24.1971 13.8739 24.1989 13.969 24.132 14.0077L17.8057 17.6605C17.8056 17.6606 17.8056 17.6606 17.8055 17.6606C17.7387 17.699 17.6567 17.6503 17.6567 17.5749V10.2682C17.6567 10.1912 17.7397 10.1444 17.8049 10.182Z" fill="white" stroke="white"/>
</svg>
